<svg width="26" height="24" viewBox="0 0 26 24" fill="none" xmlns="http://www.w3.org/2000/svg">
<path fill-rule="evenodd" clip-rule="evenodd" d="M9.875 12.6921C13.3182 12.6921 16.0783 9.89632 16.0783 6.40855C16.0783 2.92079 13.3182 0.125 9.875 0.125C6.43179 0.125 3.67171 2.92079 3.67171 6.40855C3.67171 9.89632 6.43179 12.6921 9.875 12.6921ZM9.875 15.769C4.81778 15.769 0.5 16.5776 0.5 19.8081C0.5 23.0373 4.79151 23.875 9.875 23.875C14.931 23.875 19.25 23.0664 19.25 19.8359C19.25 16.6054 14.9585 15.769 9.875 15.769ZM22.8724 8.98483H24.3763C24.9953 8.98483 25.5 9.49664 25.5 10.1243C25.5 10.7521 24.9953 11.2639 24.3763 11.2639H22.8724V12.7355C22.8724 13.3632 22.369 13.875 21.7487 13.875C21.1297 13.875 20.625 13.3632 20.625 12.7355V11.2639H19.1237C18.5034 11.2639 18 10.7521 18 10.1243C18 9.49664 18.5034 8.98483 19.1237 8.98483H20.625V7.51452C20.625 6.88681 21.1297 6.375 21.7487 6.375C22.369 6.375 22.8724 6.88681 22.8724 7.51452V8.98483Z" fill="white"/>
</svg>
