<svg width="30" height="30" viewBox="0 0 30 30" fill="none" xmlns="http://www.w3.org/2000/svg">
<path fill-rule="evenodd" clip-rule="evenodd" d="M9.16274 2.50012H20.8252C25.0752 2.50012 27.5002 4.90012 27.5002 9.16262V20.8376C27.5002 25.0751 25.0877 27.5001 20.8377 27.5001H9.16274C4.90024 27.5001 2.50024 25.0751 2.50024 20.8376V9.16262C2.50024 4.90012 4.90024 2.50012 9.16274 2.50012ZM16.0252 16.0376H19.5752C20.1502 16.0251 20.6127 15.5626 20.6127 14.9876C20.6127 14.4126 20.1502 13.9501 19.5752 13.9501H16.0252V10.4251C16.0252 9.85012 15.5627 9.38762 14.9877 9.38762C14.4127 9.38762 13.9502 9.85012 13.9502 10.4251V13.9501H10.4127C10.1377 13.9501 9.87524 14.0626 9.67524 14.2501C9.48774 14.4501 9.37524 14.7114 9.37524 14.9876C9.37524 15.5626 9.83774 16.0251 10.4127 16.0376H13.9502V19.5751C13.9502 20.1501 14.4127 20.6126 14.9877 20.6126C15.5627 20.6126 16.0252 20.1501 16.0252 19.5751V16.0376Z" fill="white"/>
</svg>
