<svg width="24" height="24" viewBox="0 0 24 24" fill="none" xmlns="http://www.w3.org/2000/svg">
<path fill-rule="evenodd" clip-rule="evenodd" d="M15.04 4.0513C16.05 4.4533 16.359 5.8533 16.772 6.3033C17.185 6.7533 17.776 6.9063 18.103 6.9063C19.841 6.9063 21.25 8.3153 21.25 10.0523V15.8473C21.25 18.1773 19.36 20.0673 17.03 20.0673H6.97C4.639 20.0673 2.75 18.1773 2.75 15.8473V10.0523C2.75 8.3153 4.159 6.9063 5.897 6.9063C6.223 6.9063 6.814 6.7533 7.228 6.3033C7.641 5.8533 7.949 4.4533 8.959 4.0513C9.97 3.6493 14.03 3.6493 15.04 4.0513Z" stroke="#8391A1" stroke-width="1.5" stroke-linecap="round" stroke-linejoin="round"/>
<path d="M17.4955 9.5H17.5045" stroke="#8391A1" stroke-width="2" stroke-linecap="round" stroke-linejoin="round"/>
<path fill-rule="evenodd" clip-rule="evenodd" d="M15.1788 13.128C15.1788 11.372 13.7558 9.94901 11.9998 9.94901C10.2438 9.94901 8.8208 11.372 8.8208 13.128C8.8208 14.884 10.2438 16.307 11.9998 16.307C13.7558 16.307 15.1788 14.884 15.1788 13.128Z" stroke="#8391A1" stroke-width="1.5" stroke-linecap="round" stroke-linejoin="round"/>
</svg>
