<svg width="9" height="14" viewBox="0 0 9 14" fill="none" xmlns="http://www.w3.org/2000/svg">
<path d="M1.24592 13.0101C1.32333 13.0877 1.41529 13.1493 1.51653 13.1913C1.61778 13.2333 1.72631 13.2549 1.83593 13.2549C1.94554 13.2549 2.05407 13.2333 2.15531 13.1913C2.25656 13.1493 2.34852 13.0877 2.42592 13.0101L7.96593 7.47009C8.02773 7.40841 8.07676 7.33516 8.11021 7.25451C8.14367 7.17386 8.16089 7.0874 8.16089 7.00009C8.16089 6.91278 8.14367 6.82632 8.11021 6.74568C8.07676 6.66503 8.02773 6.59177 7.96593 6.53009L2.42592 0.990091C2.09926 0.663424 1.57259 0.663424 1.24592 0.990091C0.919258 1.31676 0.919258 1.84342 1.24592 2.17009L6.07259 7.00342L1.23926 11.8368C0.919259 12.1568 0.919258 12.6901 1.24592 13.0101Z" fill="white" stroke="white" stroke-width="0.7"/>
</svg>
