<svg width="14" height="14" viewBox="0 0 14 14" fill="none" xmlns="http://www.w3.org/2000/svg">
<path d="M7.00016 6.98541C6.3585 6.98541 5.8335 6.78125 5.42516 6.37291C5.01683 5.96458 4.81266 5.43958 4.81266 4.79791C4.81266 4.15625 5.01683 3.63125 5.42516 3.22291C5.8335 2.81458 6.3585 2.61041 7.00016 2.61041C7.64183 2.61041 8.16683 2.81458 8.57516 3.22291C8.9835 3.63125 9.18766 4.15625 9.18766 4.79791C9.18766 5.43958 8.9835 5.96458 8.57516 6.37291C8.16683 6.78125 7.64183 6.98541 7.00016 6.98541ZM2.3335 11.6667V10.2958C2.3335 9.92639 2.42586 9.61041 2.61058 9.34791C2.7953 9.08541 3.0335 8.88611 3.32516 8.75C3.97655 8.45833 4.6012 8.23958 5.19912 8.09375C5.79704 7.94791 6.39738 7.875 7.00016 7.875C7.60294 7.875 8.20086 7.95034 8.79391 8.10104C9.38697 8.25173 10.0088 8.469 10.6594 8.75283C10.9637 8.89016 11.2077 9.0893 11.3914 9.35025C11.575 9.61119 11.6668 9.92639 11.6668 10.2958V11.6667H2.3335ZM3.2085 10.7917H10.7918V10.2958C10.7918 10.1403 10.7456 9.99201 10.6533 9.85104C10.5609 9.71007 10.4467 9.60555 10.3106 9.5375C9.68836 9.23611 9.11961 9.02951 8.60433 8.9177C8.08905 8.8059 7.55433 8.75 7.00016 8.75C6.446 8.75 5.90641 8.8059 5.38141 8.9177C4.85641 9.02951 4.28766 9.23611 3.67516 9.5375C3.53905 9.60555 3.42725 9.71007 3.33975 9.85104C3.25225 9.99201 3.2085 10.1403 3.2085 10.2958V10.7917ZM7.00016 6.11041C7.37933 6.11041 7.69287 5.98645 7.94079 5.73854C8.1887 5.49062 8.31266 5.17708 8.31266 4.79791C8.31266 4.41875 8.1887 4.1052 7.94079 3.85729C7.69287 3.60937 7.37933 3.48541 7.00016 3.48541C6.621 3.48541 6.30745 3.60937 6.05954 3.85729C5.81162 4.1052 5.68766 4.41875 5.68766 4.79791C5.68766 5.17708 5.81162 5.49062 6.05954 5.73854C6.30745 5.98645 6.621 6.11041 7.00016 6.11041Z" fill="#0CB53B"/>
</svg>
