<svg width="9" height="14" viewBox="0 0 9 14" fill="none" xmlns="http://www.w3.org/2000/svg">
<path d="M7.91496 0.98991C7.83755 0.912304 7.7456 0.850733 7.64435 0.808722C7.54311 0.766711 7.43458 0.745087 7.32496 0.745087C7.21535 0.745087 7.10682 0.766711 7.00557 0.808722C6.90433 0.850733 6.81237 0.912304 6.73496 0.98991L1.19496 6.52991C1.13316 6.59159 1.08413 6.66484 1.05067 6.74549C1.01722 6.82614 1 6.9126 1 6.99991C1 7.08722 1.01722 7.17368 1.05067 7.25432C1.08413 7.33497 1.13316 7.40823 1.19496 7.46991L6.73496 13.0099C7.06163 13.3366 7.5883 13.3366 7.91496 13.0099C8.24163 12.6832 8.24163 12.1566 7.91496 11.8299L3.0883 6.99658L7.92163 2.16324C8.24163 1.84324 8.24163 1.30991 7.91496 0.98991Z" fill="white" stroke="white" stroke-width="0.7"/>
</svg>
