<svg width="363" height="257" viewBox="0 0 363 257" fill="none" xmlns="http://www.w3.org/2000/svg">
<path d="M141.843 86.4614C141.843 84.6638 141.27 83.2704 140.123 82.2813C138.976 81.2922 137.29 80.7977 135.066 80.7977H129.015V92.0693H135.079C137.315 92.0693 139.001 91.5833 140.136 90.6114C141.271 89.6395 141.845 88.2562 141.856 86.4614H141.843ZM134.962 100.481H129.015V110.708H118.147V72.2225H135.741C139.221 72.2225 142.245 72.7959 144.811 73.9427C146.572 74.7744 148.14 75.9644 149.415 77.4365C150.69 78.9087 151.644 80.6307 152.216 82.4924C152.788 84.3541 152.965 86.3147 152.736 88.2488C152.507 90.1829 151.878 92.048 150.887 93.7249C149.526 95.847 147.586 97.5349 145.296 98.5888L153.596 110.686H141.942L134.962 100.481Z" fill="#59709A"/>
<path d="M190.993 111.477C187.929 111.485 184.876 111.096 181.911 110.321C178.978 109.552 176.595 108.526 174.763 107.241L178.337 99.2168C180.193 100.414 182.21 101.339 184.328 101.965C186.499 102.646 188.761 102.998 191.036 103.01C195.211 103.01 197.299 101.965 197.302 99.8747C197.302 98.7767 196.707 97.961 195.518 97.4278C193.657 96.6979 191.734 96.1379 189.772 95.7549C187.314 95.253 184.893 94.5834 182.526 93.7508C180.596 93.0421 178.876 91.8589 177.524 90.3104C176.131 88.7336 175.434 86.6077 175.434 83.9328C175.409 81.6686 176.08 79.4512 177.357 77.581C178.641 75.6916 180.556 74.1979 183.102 73.0998C185.648 72.0018 188.773 71.4528 192.477 71.4528C194.995 71.4543 197.504 71.7428 199.956 72.3129C202.227 72.8164 204.409 73.6648 206.424 74.8286L203.074 82.9093C199.407 80.931 195.85 79.9419 192.404 79.9419C190.245 79.9419 188.668 80.2616 187.674 80.9009C187.227 81.1493 186.854 81.5119 186.593 81.9517C186.332 82.3915 186.193 82.8926 186.19 83.4038C186.19 84.4331 186.776 85.2029 187.949 85.7132C189.791 86.416 191.694 86.9472 193.634 87.3001C196.107 87.7957 198.541 88.4653 200.919 89.3041C202.838 90.0188 204.554 91.1892 205.921 92.7144C207.331 94.2712 208.036 96.3885 208.036 99.0662C208.058 101.303 207.387 103.492 206.114 105.332C204.83 107.204 202.904 108.698 200.338 109.813C197.773 110.928 194.658 111.488 190.993 111.49V111.477Z" fill="#59709A"/>
<path d="M243.937 102.296V110.708H213.042V72.2225H243.223V80.6342H223.815V87.1194H240.914V95.2559H223.815V102.296H243.937Z" fill="#59709A"/>
<path d="M113.533 132.563H123.153V148.505C120.847 150.133 118.282 151.36 115.567 152.134C112.776 152.968 109.879 153.394 106.966 153.399C103.183 153.457 99.4439 152.58 96.0816 150.844C92.9427 149.218 90.3166 146.753 88.4956 143.723C86.6921 140.576 85.7432 137.013 85.7432 133.386C85.7432 129.76 86.6921 126.196 88.4956 123.05C90.3265 120.009 92.9742 117.543 96.1376 115.933C99.5555 114.189 103.349 113.311 107.186 113.374C110.5 113.321 113.791 113.938 116.862 115.189C119.636 116.328 122.094 118.12 124.026 120.414L117.102 126.68C114.496 123.813 111.38 122.379 107.753 122.379C104.453 122.379 101.796 123.383 99.7801 125.39C97.7646 127.396 96.7611 130.064 96.7697 133.393C96.735 135.376 97.2088 137.334 98.1459 139.082C99.0337 140.722 100.368 142.076 101.995 142.987C103.728 143.941 105.681 144.423 107.659 144.385C109.686 144.394 111.69 143.961 113.533 143.116V132.563Z" fill="#59709A"/>
<path d="M162.817 135.672C163.875 134.013 164.561 132.143 164.825 130.193C165.09 128.243 164.928 126.258 164.35 124.377C163.772 122.495 162.792 120.762 161.478 119.296C160.164 117.831 158.548 116.669 156.74 115.89C154.16 114.743 151.137 114.17 147.67 114.17H130.077V151.494C133.707 151.015 137.335 150.585 140.962 150.203V142.407H146.901L151.58 149.262C155.307 148.975 159.034 148.744 162.761 148.569L157.248 140.536C159.529 139.477 161.461 137.79 162.817 135.672ZM152.066 132.537C150.919 133.509 149.233 133.995 147.008 133.995H140.962V122.723H147.008C149.244 122.723 150.93 123.218 152.066 124.207C153.201 125.196 153.774 126.589 153.786 128.387C153.777 130.179 153.204 131.562 152.066 132.537Z" fill="#59709A"/>
<path d="M276.32 114.148L263.848 152.633H252.194L244.827 129.208L237.387 151.807C233.164 151.234 228.93 150.724 224.684 150.276L212.973 114.152H224.189L231.93 138.725L240.066 114.152H250.074L257.815 138.945L265.895 114.152L276.32 114.148Z" fill="#59709A"/>
<path d="M254.245 107.994C255.292 108.008 256.316 107.689 257.17 107.082L253.411 103.569C252.845 103.865 252.341 104.264 251.923 104.747C251.636 105.123 251.484 105.586 251.493 106.059C251.489 106.337 251.557 106.612 251.688 106.857C251.82 107.102 252.012 107.31 252.246 107.461C252.85 107.842 253.557 108.029 254.271 107.994H254.245ZM254.731 97.0364C254.286 97.0121 253.847 97.1547 253.501 97.4363C253.353 97.5617 253.235 97.7188 253.157 97.896C253.078 98.0732 253.04 98.2659 253.045 98.4598C253.048 98.7634 253.133 99.0605 253.291 99.3199C253.563 99.7239 253.884 100.094 254.245 100.421C254.823 100.142 255.355 99.7783 255.824 99.3414C256.096 99.0664 256.25 98.6962 256.254 98.3093C256.26 98.1333 256.227 97.958 256.158 97.796C256.089 97.634 255.985 97.4891 255.854 97.3718C255.533 97.127 255.134 97.0077 254.731 97.0364ZM261.066 110.703L259.199 108.983C258.034 109.854 256.669 110.419 255.229 110.627C253.789 110.835 252.32 110.679 250.955 110.174C250.126 109.863 249.393 109.337 248.831 108.652C248.331 108.028 248.06 107.25 248.066 106.45C248.05 105.535 248.336 104.641 248.878 103.904C249.591 103.029 250.481 102.314 251.489 101.806C250.995 101.323 250.583 100.764 250.267 100.15C250.019 99.6411 249.889 99.0822 249.889 98.5158C249.876 97.8034 250.085 97.1046 250.487 96.516C250.919 95.9115 251.516 95.4442 252.207 95.17C253.012 94.8378 253.877 94.6753 254.748 94.6926C255.91 94.634 257.056 94.9756 257.995 95.6602C258.392 95.9667 258.71 96.3634 258.922 96.8174C259.135 97.2715 259.236 97.7697 259.217 98.2706C259.23 99.049 258.975 99.8082 258.494 100.421C257.85 101.173 257.06 101.786 256.172 102.223L259.019 104.868C259.378 104.094 259.639 103.28 259.797 102.442L262.575 103.302C262.328 104.56 261.845 105.759 261.152 106.837L262.975 108.527L261.066 110.703Z" fill="#59709A"/>
<path d="M208.781 123.106C206.933 120.071 204.291 117.599 201.139 115.959C197.732 114.262 193.978 113.379 190.172 113.379C186.367 113.379 182.613 114.262 179.206 115.959C176.851 117.242 174.778 118.987 173.111 121.089C171.444 123.191 170.218 125.607 169.505 128.193C168.792 130.779 168.606 133.482 168.96 136.142C169.314 138.801 170.2 141.361 171.564 143.671C172.579 145.351 173.849 146.864 175.327 148.156C184.99 147.984 194.705 148.156 204.42 148.664C208.046 145.603 210.473 141.359 211.271 136.682C212.07 132.005 211.189 127.196 208.785 123.106H208.781ZM199.186 139.134C198.322 140.746 197.027 142.086 195.445 143.004C193.832 143.907 192.016 144.381 190.168 144.381C188.32 144.381 186.504 143.907 184.891 143.004C183.31 142.085 182.015 140.745 181.15 139.134C180.248 137.353 179.778 135.385 179.778 133.388C179.778 131.392 180.248 129.424 181.15 127.643C182.015 126.032 183.31 124.692 184.891 123.773C186.504 122.87 188.32 122.396 190.168 122.396C192.016 122.396 193.832 122.87 195.445 123.773C197.027 124.691 198.322 126.031 199.186 127.643C200.088 129.424 200.558 131.392 200.558 133.388C200.558 135.385 200.088 137.353 199.186 139.134Z" fill="#59709A"/>
<path d="M129.479 187.785V192.404H135.238V193.114H129.479V197.883H128.692V187.076H135.917V187.785H129.479Z" fill="#2B2A29"/>
<path d="M141.168 190.443C140.634 190.434 140.106 190.564 139.637 190.822C139.185 191.071 138.809 191.438 138.549 191.884C138.272 192.357 138.112 192.889 138.08 193.436H144.256C144.233 192.891 144.073 192.36 143.791 191.892C143.521 191.441 143.136 191.069 142.675 190.815C142.214 190.56 141.694 190.432 141.168 190.443ZM144.996 194.038H138.046C138.057 194.629 138.221 195.207 138.523 195.716C138.818 196.196 139.237 196.588 139.736 196.851C140.268 197.122 140.859 197.26 141.456 197.251C141.958 197.256 142.455 197.159 142.918 196.967C143.357 196.778 143.741 196.482 144.037 196.107L144.467 196.614C144.112 197.042 143.659 197.376 143.146 197.591C142.602 197.818 142.017 197.934 141.426 197.93C140.675 197.945 139.934 197.762 139.276 197.401C138.659 197.065 138.148 196.563 137.801 195.952C137.438 195.307 137.254 194.576 137.268 193.836C137.256 193.103 137.429 192.378 137.771 191.729C138.086 191.124 138.564 190.619 139.151 190.271C139.752 189.93 140.432 189.751 141.123 189.751C141.814 189.751 142.494 189.93 143.095 190.271C143.679 190.616 144.155 191.116 144.471 191.716C144.814 192.361 144.987 193.084 144.974 193.815L144.996 194.038Z" fill="#2B2A29"/>
<path d="M150.384 190.443C149.851 190.434 149.325 190.564 148.857 190.822C148.404 191.071 148.027 191.438 147.765 191.884C147.49 192.358 147.33 192.889 147.296 193.436H153.472C153.451 192.89 153.291 192.359 153.007 191.892C152.74 191.448 152.362 191.081 151.911 190.826C151.444 190.567 150.918 190.435 150.384 190.443ZM154.211 194.038H147.279C147.289 194.63 147.456 195.209 147.761 195.716C148.053 196.197 148.471 196.589 148.969 196.851C149.462 197.093 150 197.228 150.548 197.248C151.096 197.268 151.643 197.172 152.151 196.967C152.59 196.778 152.974 196.482 153.27 196.107L153.7 196.614C153.347 197.042 152.895 197.377 152.384 197.591C151.839 197.818 151.254 197.934 150.664 197.93C149.913 197.945 149.172 197.762 148.513 197.401C147.897 197.064 147.386 196.562 147.038 195.952C146.677 195.306 146.493 194.576 146.505 193.836C146.493 193.103 146.666 192.378 147.008 191.729C147.325 191.125 147.803 190.621 148.389 190.271C148.991 189.93 149.671 189.751 150.362 189.751C151.054 189.751 151.734 189.93 152.336 190.271C152.919 190.616 153.394 191.116 153.708 191.716C154.052 192.362 154.225 193.084 154.211 193.815V194.038Z" fill="#2B2A29"/>
<path d="M157.394 186.426H156.624V197.883H157.394V186.426Z" fill="#2B2A29"/>
<path d="M168.618 197.393C168.41 197.59 168.16 197.737 167.887 197.823C167.591 197.923 167.28 197.973 166.967 197.973C166.671 197.992 166.375 197.95 166.096 197.851C165.817 197.751 165.562 197.595 165.346 197.393C165.148 197.175 164.995 196.921 164.897 196.644C164.799 196.367 164.757 196.073 164.774 195.78V190.486H163.294V189.824H164.774V188.065H165.569V189.824H168.149V190.486H165.569V195.673C165.537 196.105 165.673 196.533 165.948 196.868C166.094 197.011 166.27 197.122 166.463 197.192C166.656 197.263 166.861 197.292 167.066 197.277C167.522 197.297 167.969 197.143 168.317 196.847L168.618 197.393Z" fill="#2B2A29"/>
<path d="M174.703 189.764C175.139 189.738 175.576 189.801 175.987 189.949C176.398 190.097 176.775 190.326 177.094 190.624C177.404 190.965 177.641 191.366 177.792 191.801C177.944 192.236 178.006 192.697 177.976 193.157V197.866H177.202V193.234C177.255 192.482 177.009 191.739 176.518 191.166C176.263 190.922 175.961 190.734 175.631 190.612C175.3 190.49 174.948 190.437 174.596 190.456C174.183 190.435 173.77 190.501 173.384 190.649C172.999 190.797 172.648 191.024 172.355 191.316C172.075 191.624 171.858 191.984 171.717 192.376C171.577 192.768 171.516 193.184 171.538 193.6V197.9H170.764V186.426H171.538V191.505C171.805 190.957 172.237 190.506 172.772 190.215C173.366 189.898 174.031 189.741 174.703 189.759V189.764Z" fill="#2B2A29"/>
<path d="M184.152 190.443C183.618 190.434 183.092 190.564 182.625 190.822C182.172 191.071 181.795 191.438 181.533 191.884C181.253 192.357 181.088 192.888 181.051 193.436H187.226C187.206 192.89 187.046 192.359 186.762 191.892C186.494 191.448 186.117 191.081 185.665 190.826C185.199 190.567 184.672 190.435 184.139 190.443H184.152ZM187.979 194.038H181.051C181.061 194.63 181.227 195.209 181.533 195.716C181.825 196.197 182.243 196.589 182.741 196.851C183.234 197.093 183.771 197.228 184.32 197.248C184.868 197.268 185.415 197.172 185.923 196.967C186.362 196.778 186.746 196.482 187.041 196.107L187.493 196.614C187.138 197.042 186.685 197.377 186.173 197.591C185.628 197.818 185.043 197.934 184.453 197.93C183.702 197.945 182.961 197.762 182.302 197.401C181.686 197.064 181.175 196.562 180.827 195.952C180.466 195.306 180.282 194.576 180.294 193.836C180.282 193.103 180.455 192.378 180.797 191.729C181.114 191.125 181.592 190.621 182.178 190.271C182.78 189.93 183.46 189.751 184.152 189.751C184.843 189.751 185.524 189.93 186.125 190.271C186.708 190.616 187.183 191.116 187.497 191.716C187.841 192.362 188.014 193.084 188.001 193.815L187.979 194.038Z" fill="#2B2A29"/>
<path d="M196.395 197.947C195.765 197.95 195.139 197.85 194.542 197.651C194.038 197.501 193.571 197.249 193.17 196.911L193.522 196.292C193.907 196.6 194.344 196.836 194.812 196.988C195.334 197.175 195.884 197.269 196.438 197.268C197.065 197.312 197.692 197.172 198.24 196.864C198.422 196.743 198.571 196.578 198.671 196.383C198.772 196.189 198.822 195.973 198.816 195.754C198.824 195.605 198.801 195.457 198.747 195.318C198.692 195.179 198.609 195.054 198.502 194.95C198.277 194.75 198.009 194.603 197.72 194.52C197.414 194.43 196.984 194.331 196.429 194.228C195.906 194.143 195.39 194.019 194.886 193.858C194.502 193.729 194.157 193.506 193.884 193.208C193.583 192.869 193.429 192.426 193.454 191.974C193.451 191.666 193.522 191.362 193.66 191.087C193.798 190.811 194 190.573 194.249 190.391C194.912 189.935 195.708 189.716 196.511 189.768C197.028 189.767 197.542 189.839 198.038 189.983C198.482 190.098 198.901 190.291 199.276 190.555L198.919 191.17C198.578 190.927 198.196 190.745 197.793 190.632C197.374 190.509 196.939 190.447 196.503 190.447C195.905 190.41 195.311 190.56 194.804 190.877C194.625 190.998 194.479 191.162 194.38 191.353C194.281 191.545 194.232 191.758 194.236 191.974C194.227 192.129 194.251 192.284 194.307 192.428C194.362 192.573 194.448 192.704 194.559 192.813C194.787 193.016 195.059 193.163 195.354 193.243C195.789 193.372 196.229 193.478 196.675 193.561C197.189 193.645 197.696 193.766 198.193 193.922C198.568 194.044 198.905 194.26 199.173 194.55C199.458 194.878 199.603 195.304 199.577 195.737C199.584 196.053 199.511 196.367 199.365 196.648C199.22 196.929 199.006 197.168 198.743 197.345C198.042 197.786 197.221 197.997 196.395 197.947Z" fill="#2B2A29"/>
<path d="M205.676 189.764C206.112 189.738 206.548 189.801 206.959 189.949C207.37 190.096 207.747 190.326 208.067 190.624C208.376 190.965 208.613 191.366 208.764 191.801C208.916 192.236 208.978 192.697 208.948 193.157V197.866H208.178V193.234C208.23 192.481 207.983 191.738 207.49 191.166C207.235 190.922 206.933 190.734 206.603 190.612C206.272 190.49 205.92 190.437 205.568 190.456C205.155 190.435 204.743 190.501 204.357 190.649C203.971 190.798 203.62 191.025 203.328 191.316C203.047 191.624 202.83 191.984 202.69 192.376C202.549 192.768 202.488 193.184 202.51 193.6V197.9H201.736V186.426H202.51V191.505C202.778 190.958 203.21 190.507 203.745 190.215C204.338 189.899 205.003 189.742 205.676 189.759V189.764Z" fill="#2B2A29"/>
<path d="M212.513 187.863C212.353 187.86 212.199 187.797 212.083 187.687C212.025 187.631 211.979 187.564 211.947 187.49C211.915 187.416 211.899 187.337 211.898 187.256C211.904 187.134 211.946 187.015 212.017 186.915C212.089 186.816 212.188 186.738 212.302 186.693C212.416 186.648 212.541 186.636 212.661 186.66C212.782 186.684 212.893 186.741 212.982 186.826C213.04 186.882 213.087 186.948 213.119 187.022C213.151 187.096 213.167 187.176 213.167 187.256C213.164 187.418 213.097 187.573 212.982 187.687C212.869 187.802 212.714 187.869 212.552 187.871L212.513 187.863ZM212.13 189.824H212.9V197.883H212.13V189.824Z" fill="#2B2A29"/>
<path d="M220.095 189.764C220.532 189.738 220.969 189.801 221.38 189.949C221.792 190.097 222.17 190.326 222.49 190.624C222.796 190.967 223.029 191.368 223.177 191.803C223.324 192.238 223.383 192.698 223.35 193.157V197.866H222.581V193.234C222.634 192.481 222.386 191.737 221.893 191.166C221.639 190.921 221.337 190.731 221.006 190.609C220.675 190.487 220.322 190.435 219.97 190.456C219.558 190.435 219.146 190.501 218.761 190.649C218.376 190.797 218.026 191.024 217.734 191.316C217.453 191.623 217.235 191.983 217.094 192.375C216.953 192.767 216.891 193.184 216.913 193.6V197.9H216.143V189.824H216.883V191.57C217.153 191.011 217.586 190.548 218.125 190.241C218.722 189.911 219.396 189.747 220.078 189.764H220.095Z" fill="#2B2A29"/>
<path d="M229.548 190.443C229.013 190.434 228.485 190.564 228.017 190.822C227.565 191.071 227.189 191.438 226.929 191.884C226.653 192.358 226.491 192.889 226.456 193.436H232.657C232.634 192.891 232.474 192.36 232.192 191.892C231.922 191.441 231.537 191.069 231.076 190.815C230.615 190.56 230.095 190.432 229.569 190.443H229.548ZM233.375 194.038H226.443C226.454 194.629 226.618 195.207 226.92 195.716C227.215 196.196 227.634 196.588 228.133 196.851C228.665 197.122 229.256 197.26 229.853 197.251C230.354 197.255 230.852 197.159 231.315 196.967C231.753 196.777 232.137 196.481 232.433 196.107L232.863 196.614C232.508 197.042 232.055 197.376 231.543 197.591C230.998 197.818 230.413 197.934 229.823 197.93C229.072 197.945 228.331 197.762 227.673 197.401C227.055 197.065 226.544 196.563 226.198 195.952C225.835 195.307 225.651 194.576 225.664 193.836C225.653 193.103 225.826 192.378 226.167 191.729C226.483 191.124 226.961 190.619 227.548 190.271C228.149 189.93 228.828 189.751 229.52 189.751C230.211 189.751 230.89 189.93 231.491 190.271C232.075 190.616 232.552 191.116 232.868 191.716C233.211 192.361 233.384 193.084 233.371 193.815L233.375 194.038Z" fill="#2B2A29"/>
<path d="M106.398 174.471H108.372V178.238C107.843 178.623 107.25 178.914 106.622 179.098C105.973 179.299 105.298 179.402 104.618 179.404C103.713 179.418 102.818 179.205 102.016 178.784C101.266 178.389 100.639 177.794 100.206 177.064C99.7746 176.311 99.5479 175.458 99.5479 174.589C99.5479 173.721 99.7746 172.868 100.206 172.114C100.643 171.383 101.274 170.788 102.029 170.394C102.842 169.978 103.744 169.767 104.657 169.779C105.415 169.77 106.167 169.908 106.871 170.188C107.516 170.449 108.089 170.858 108.544 171.383L107.164 172.673C106.861 172.34 106.49 172.074 106.076 171.894C105.663 171.713 105.215 171.623 104.764 171.628C104.215 171.616 103.672 171.744 103.186 171.998C102.735 172.239 102.362 172.603 102.111 173.048C101.857 173.523 101.724 174.054 101.724 174.594C101.724 175.133 101.857 175.664 102.111 176.14C102.362 176.582 102.731 176.947 103.177 177.193C103.657 177.45 104.194 177.58 104.738 177.572C105.32 177.581 105.894 177.444 106.407 177.172L106.398 174.471Z" fill="#2B2A29"/>
<path d="M159.729 177.61C160.248 177.616 160.76 177.485 161.213 177.232C161.65 176.984 162.01 176.619 162.253 176.178C162.502 175.703 162.632 175.175 162.632 174.639C162.632 174.103 162.502 173.574 162.253 173.099C162.012 172.656 161.651 172.29 161.213 172.041C160.756 171.796 160.245 171.667 159.727 171.667C159.208 171.667 158.698 171.796 158.241 172.041C157.802 172.29 157.442 172.656 157.2 173.099C156.952 173.574 156.822 174.103 156.822 174.639C156.822 175.175 156.952 175.703 157.2 176.178C157.443 176.619 157.803 176.984 158.241 177.232C158.695 177.486 159.208 177.616 159.729 177.61ZM159.729 179.442C158.82 179.455 157.923 179.241 157.119 178.819C156.366 178.424 155.738 177.829 155.304 177.099C154.873 176.35 154.646 175.501 154.646 174.637C154.646 173.773 154.873 172.924 155.304 172.175C155.738 171.444 156.366 170.849 157.119 170.454C157.925 170.045 158.818 169.831 159.722 169.831C160.627 169.831 161.52 170.045 162.326 170.454C163.086 170.857 163.722 171.459 164.165 172.195C164.608 172.932 164.842 173.775 164.842 174.635C164.842 175.494 164.608 176.337 164.165 177.074C163.722 177.81 163.086 178.412 162.326 178.815C161.525 179.231 160.632 179.439 159.729 179.421V179.442Z" fill="#2B2A29"/>
<path d="M183.106 179.421C182.208 179.436 181.32 179.223 180.526 178.802C179.778 178.405 179.153 177.81 178.72 177.081C178.291 176.327 178.066 175.474 178.066 174.607C178.066 173.739 178.291 172.886 178.72 172.132C179.154 171.404 179.778 170.809 180.526 170.411C181.322 169.995 182.209 169.783 183.106 169.796C183.856 169.789 184.6 169.936 185.291 170.226C185.925 170.5 186.486 170.918 186.93 171.448L185.549 172.738C185.266 172.394 184.909 172.118 184.505 171.93C184.101 171.743 183.659 171.648 183.214 171.654C182.677 171.645 182.147 171.774 181.674 172.028C181.23 172.274 180.865 172.641 180.621 173.086C180.372 173.561 180.242 174.09 180.242 174.626C180.242 175.162 180.372 175.69 180.621 176.165C180.866 176.609 181.231 176.974 181.674 177.219C182.147 177.475 182.677 177.606 183.214 177.598C183.661 177.602 184.103 177.505 184.508 177.315C184.912 177.124 185.268 176.844 185.549 176.497L186.93 177.787C186.487 178.324 185.922 178.747 185.282 179.021C184.59 179.314 183.845 179.46 183.093 179.451L183.106 179.421Z" fill="#2B2A29"/>
<path d="M116.234 173.34C116.247 173.115 116.209 172.89 116.122 172.682C116.034 172.474 115.901 172.288 115.731 172.14C115.304 171.83 114.782 171.677 114.256 171.71H112.505V174.948H114.256C114.783 174.983 115.305 174.831 115.731 174.518C115.9 174.371 116.033 174.186 116.121 173.979C116.208 173.772 116.247 173.547 116.234 173.323V173.34ZM116.272 179.262L114.483 176.682H112.505V179.262H110.355V169.973H114.393C115.131 169.955 115.864 170.095 116.543 170.381C117.123 170.622 117.615 171.035 117.953 171.564C118.292 172.093 118.46 172.713 118.436 173.34C118.452 173.972 118.278 174.593 117.937 175.125C117.59 175.64 117.097 176.04 116.522 176.273L118.608 179.262H116.272Z" fill="#2B2A29"/>
<path d="M124.607 177.61C125.126 177.616 125.637 177.485 126.091 177.232C126.528 176.984 126.888 176.619 127.131 176.178C127.38 175.703 127.51 175.175 127.51 174.639C127.51 174.103 127.38 173.574 127.131 173.099C126.893 172.649 126.532 172.274 126.091 172.02C125.634 171.774 125.123 171.646 124.605 171.646C124.086 171.646 123.576 171.774 123.119 172.02C122.68 172.269 122.32 172.635 122.078 173.078C121.829 173.553 121.7 174.081 121.7 174.617C121.7 175.154 121.829 175.682 122.078 176.157C122.321 176.598 122.681 176.962 123.119 177.211C123.573 177.464 124.086 177.595 124.607 177.589V177.61ZM124.607 179.442C123.698 179.455 122.801 179.241 121.996 178.819C121.244 178.424 120.616 177.829 120.182 177.099C119.751 176.35 119.524 175.501 119.524 174.637C119.524 173.773 119.751 172.924 120.182 172.175C120.616 171.444 121.244 170.849 121.996 170.454C122.803 170.045 123.695 169.831 124.6 169.831C125.505 169.831 126.398 170.045 127.204 170.454C127.964 170.857 128.599 171.459 129.043 172.195C129.486 172.932 129.72 173.775 129.72 174.635C129.72 175.494 129.486 176.337 129.043 177.074C128.599 177.81 127.964 178.412 127.204 178.815C126.403 179.231 125.51 179.439 124.607 179.421V179.442Z" fill="#2B2A29"/>
<path d="M135.431 179.421C134.867 179.454 134.302 179.374 133.77 179.184C133.238 178.994 132.75 178.699 132.335 178.316C131.595 177.585 131.225 176.537 131.225 175.172V169.973H133.376V175.095C133.376 176.755 134.064 177.589 135.444 177.589C135.73 177.608 136.016 177.564 136.282 177.459C136.548 177.354 136.788 177.191 136.984 176.983C137.384 176.439 137.574 175.768 137.517 175.095V169.973H139.637V175.172C139.637 176.537 139.269 177.585 138.532 178.316C138.116 178.699 137.627 178.994 137.094 179.184C136.561 179.374 135.996 179.455 135.431 179.421Z" fill="#2B2A29"/>
<path d="M145.662 174.948C146.189 174.979 146.71 174.827 147.137 174.518C147.296 174.363 147.423 174.177 147.509 173.971C147.595 173.766 147.64 173.546 147.64 173.323C147.64 173.1 147.595 172.88 147.509 172.674C147.423 172.469 147.296 172.283 147.137 172.127C146.71 171.817 146.189 171.665 145.662 171.697H143.912V174.923L145.662 174.948ZM145.782 169.973C146.52 169.955 147.253 170.095 147.933 170.381C148.352 170.583 148.724 170.869 149.025 171.223C149.327 171.577 149.55 171.99 149.683 172.436C149.815 172.881 149.852 173.35 149.792 173.811C149.732 174.272 149.576 174.715 149.335 175.112C148.995 175.633 148.506 176.04 147.933 176.282C147.253 176.567 146.52 176.705 145.782 176.686H143.912V179.266H141.761V169.977L145.782 169.973Z" fill="#2B2A29"/>
<path d="M168.579 171.697V174.153H172.876V175.877H168.579V179.258H166.429V169.973H173.448V171.697H168.579Z" fill="#2B2A29"/>
<path d="M192.886 177.61C193.405 177.616 193.917 177.486 194.37 177.232C194.807 176.983 195.169 176.618 195.415 176.178C195.663 175.703 195.793 175.175 195.793 174.639C195.793 174.103 195.663 173.574 195.415 173.099C195.177 172.651 194.82 172.277 194.382 172.02C193.926 171.774 193.415 171.646 192.897 171.646C192.378 171.646 191.868 171.774 191.411 172.02C190.973 172.27 190.613 172.636 190.37 173.078C190.121 173.553 189.992 174.081 189.992 174.617C189.992 175.154 190.121 175.682 190.37 176.157C190.614 176.597 190.974 176.961 191.411 177.211C191.865 177.464 192.378 177.595 192.899 177.589L192.886 177.61ZM192.886 179.442C191.979 179.455 191.083 179.24 190.28 178.819C189.527 178.423 188.898 177.828 188.461 177.099C188.03 176.35 187.803 175.501 187.803 174.637C187.803 173.773 188.03 172.924 188.461 172.175C188.898 171.445 189.527 170.85 190.28 170.454C191.087 170.045 191.979 169.831 192.884 169.831C193.789 169.831 194.681 170.045 195.488 170.454C196.247 170.857 196.883 171.459 197.326 172.195C197.769 172.932 198.004 173.775 198.004 174.635C198.004 175.494 197.769 176.337 197.326 177.074C196.883 177.81 196.247 178.412 195.488 178.815C194.685 179.231 193.79 179.439 192.886 179.421V179.442Z" fill="#2B2A29"/>
<path d="M208.036 179.258L208.024 173.688L205.293 178.277H204.321L201.603 173.805V179.258H199.586V169.973H201.362L204.841 175.744L208.264 169.973H210.028L210.053 179.258H208.036Z" fill="#2B2A29"/>
<path d="M216.16 174.948C216.685 174.98 217.205 174.828 217.631 174.518C217.79 174.363 217.916 174.177 218.003 173.971C218.089 173.766 218.133 173.546 218.133 173.323C218.133 173.1 218.089 172.88 218.003 172.674C217.916 172.469 217.79 172.283 217.631 172.127C217.206 171.816 216.686 171.664 216.16 171.697H214.405V174.923L216.16 174.948ZM216.276 169.973C217.014 169.956 217.747 170.095 218.426 170.381C218.844 170.584 219.216 170.871 219.516 171.225C219.817 171.579 220.04 171.992 220.172 172.437C220.303 172.883 220.34 173.351 220.28 173.811C220.221 174.272 220.065 174.715 219.824 175.112C219.485 175.633 218.999 176.04 218.426 176.282C217.746 176.567 217.013 176.705 216.276 176.686H214.405V179.266H212.255V169.977L216.276 169.973Z" fill="#2B2A29"/>
<path d="M226.812 175.637L225.346 172.08L223.871 175.637H226.812ZM227.488 177.271H223.196L222.336 179.262H220.134L224.275 169.973H226.4L230.55 179.262H228.313L227.488 177.271Z" fill="#2B2A29"/>
<path d="M240.054 169.973V179.258H238.29L233.659 173.62V179.258H231.534V169.973H233.315L237.934 175.611V169.973H240.054Z" fill="#2B2A29"/>
<path d="M244.41 169.973H242.26V179.262H244.41V169.973Z" fill="#2B2A29"/>
<path d="M253.802 177.533V179.258H246.612V169.973H253.63V171.697H248.745V173.714H253.058V175.387H248.745V177.533H253.802Z" fill="#2B2A29"/>
<path d="M258.563 179.421C257.835 179.423 257.111 179.322 256.413 179.12C255.819 178.965 255.26 178.703 254.761 178.346L255.492 176.725C255.924 177.036 256.403 177.274 256.911 177.43C257.443 177.603 257.999 177.692 258.559 177.692C259.025 177.723 259.491 177.63 259.909 177.421C260.039 177.351 260.148 177.246 260.223 177.119C260.299 176.992 260.339 176.847 260.339 176.699C260.34 176.593 260.318 176.489 260.273 176.394C260.228 176.299 260.163 176.215 260.081 176.148C259.884 175.99 259.66 175.871 259.419 175.796C259.148 175.71 258.782 175.611 258.322 175.503C257.739 175.369 257.165 175.201 256.602 175C256.153 174.833 255.753 174.555 255.441 174.192C255.101 173.772 254.928 173.243 254.955 172.704C254.947 172.183 255.097 171.671 255.385 171.237C255.716 170.771 256.174 170.409 256.705 170.196C257.389 169.925 258.12 169.795 258.855 169.814C259.435 169.814 260.013 169.885 260.575 170.024C261.099 170.149 261.599 170.355 262.059 170.635L261.397 172.265C260.615 171.801 259.726 171.55 258.817 171.538C258.353 171.504 257.89 171.606 257.483 171.831C257.351 171.91 257.241 172.023 257.166 172.158C257.09 172.293 257.052 172.446 257.053 172.6C257.056 172.762 257.111 172.917 257.209 173.045C257.308 173.173 257.445 173.266 257.6 173.31C258.089 173.513 258.598 173.665 259.118 173.766C259.701 173.899 260.275 174.067 260.838 174.269C261.286 174.434 261.685 174.709 261.999 175.069C262.338 175.482 262.511 176.006 262.485 176.54C262.492 177.057 262.342 177.564 262.055 177.993C261.721 178.462 261.258 178.824 260.722 179.034C260.039 179.308 259.307 179.44 258.571 179.421H258.563Z" fill="#2B2A29"/>
<path fill-rule="evenodd" clip-rule="evenodd" d="M300.175 167.625C260.683 159.884 220.787 157.549 181.619 157.82C141.366 158.095 87.0679 163.526 61.9014 169.259C82.3674 161.699 106.627 155.927 133.032 152.633C135.649 152.306 138.291 152.005 140.957 151.73C144.785 151.334 148.655 150.992 152.569 150.702C156.267 150.416 159.994 150.19 163.75 150.027C168.205 149.821 172.698 149.689 177.228 149.631C185.532 149.52 193.948 149.662 202.429 150.061C209.975 150.426 217.572 151.01 225.221 151.816C227.561 152.06 229.905 152.328 232.253 152.62C255.322 155.429 278.068 160.454 300.175 167.625Z" fill="#FF9D9B"/>
<path fill-rule="evenodd" clip-rule="evenodd" d="M164.275 72.6526L158.83 76.0801V110.613H169.715V76.0801L164.275 72.6526Z" fill="#FF9D9B"/>
<path fill-rule="evenodd" clip-rule="evenodd" d="M164.275 63.0023L169.715 66.434V63.2044L164.275 59.7726L158.83 63.2044V66.434L164.275 63.0023Z" fill="#FF9D9B"/>
<path fill-rule="evenodd" clip-rule="evenodd" d="M169.715 68.7047L164.275 65.2729L158.83 68.7047V73.8137L164.275 70.3819L169.715 73.8137V68.7047Z" fill="#FF9D9B"/>
</svg>
