<svg width="16" height="16" viewBox="0 0 16 16" fill="none" xmlns="http://www.w3.org/2000/svg">
<g opacity="0.7">
<path d="M9.99984 13.3334C8.51095 13.3334 7.24984 12.8167 6.2165 11.7834C5.18317 10.75 4.6665 9.48891 4.6665 8.00002C4.6665 6.51113 5.18317 5.25002 6.2165 4.21669C7.24984 3.18335 8.51095 2.66669 9.99984 2.66669C11.4887 2.66669 12.7498 3.18335 13.7832 4.21669C14.8165 5.25002 15.3332 6.51113 15.3332 8.00002C15.3332 9.48891 14.8165 10.75 13.7832 11.7834C12.7498 12.8167 11.4887 13.3334 9.99984 13.3334ZM4.89984 13.1334C3.64428 12.9778 2.62484 12.4028 1.8415 11.4084C1.05817 10.4139 0.666504 9.2778 0.666504 8.00002C0.666504 6.72224 1.05817 5.58613 1.8415 4.59169C2.62484 3.59724 3.64428 3.02224 4.89984 2.86669V3.83335C3.92206 4.01113 3.13873 4.49724 2.54984 5.29169C1.96095 6.08613 1.6665 6.98891 1.6665 8.00002C1.6665 9.01113 1.96095 9.91391 2.54984 10.7084C3.13873 11.5028 3.92206 11.9889 4.89984 12.1667V13.1334ZM9.99984 12.3334C11.1887 12.3334 12.2082 11.9084 13.0582 11.0584C13.9082 10.2084 14.3332 9.18891 14.3332 8.00002C14.3332 6.81113 13.9082 5.79169 13.0582 4.94169C12.2082 4.09169 11.1887 3.66669 9.99984 3.66669C8.81095 3.66669 7.7915 4.09169 6.9415 4.94169C6.0915 5.79169 5.6665 6.81113 5.6665 8.00002C5.6665 9.18891 6.0915 10.2084 6.9415 11.0584C7.7915 11.9084 8.81095 12.3334 9.99984 12.3334Z" fill="#202020"/>
</g>
</svg>
