<svg width="18" height="18" viewBox="0 0 18 18" fill="none" xmlns="http://www.w3.org/2000/svg">
<mask id="mask0_1129_1120" style="mask-type:luminance" maskUnits="userSpaceOnUse" x="0" y="6" width="18" height="12">
<path fill-rule="evenodd" clip-rule="evenodd" d="M0.814453 6.517H17.4363V17.9577H0.814453V6.517Z" fill="white"/>
</mask>
<g mask="url(#mask0_1129_1120)">
<path fill-rule="evenodd" clip-rule="evenodd" d="M13.7507 17.9577H4.50043C2.46836 17.9577 0.814453 16.302 0.814453 14.2659V10.2079C0.814453 8.17267 2.46836 6.517 4.50043 6.517H5.27586C5.61994 6.517 5.89919 6.79669 5.89919 7.14131C5.89919 7.48593 5.61994 7.76562 5.27586 7.76562H4.50043C3.15486 7.76562 2.06112 8.86107 2.06112 10.2079V14.2659C2.06112 15.6136 3.15486 16.7091 4.50043 16.7091H13.7507C15.0954 16.7091 16.19 15.6136 16.19 14.2659V10.2004C16.19 8.85774 15.0996 7.76562 13.7598 7.76562H12.9761C12.632 7.76562 12.3528 7.48593 12.3528 7.14131C12.3528 6.79669 12.632 6.517 12.9761 6.517H13.7598C15.7869 6.517 17.4367 8.16934 17.4367 10.2004V14.2659C17.4367 16.302 15.7828 17.9577 13.7507 17.9577Z" fill="#8391A1"/>
</g>
<mask id="mask1_1129_1120" style="mask-type:luminance" maskUnits="userSpaceOnUse" x="8" y="0" width="2" height="13">
<path fill-rule="evenodd" clip-rule="evenodd" d="M8.50195 0.861588H9.74862V12.1332H8.50195V0.861588Z" fill="white"/>
</mask>
<g mask="url(#mask1_1129_1120)">
<path fill-rule="evenodd" clip-rule="evenodd" d="M9.12529 12.1332C8.78121 12.1332 8.50195 11.8535 8.50195 11.5089V1.48582C8.50195 1.1412 8.78121 0.861511 9.12529 0.861511C9.46937 0.861511 9.74862 1.1412 9.74862 1.48582V11.5089C9.74862 11.8535 9.46937 12.1332 9.12529 12.1332Z" fill="#8391A1"/>
</g>
<path fill-rule="evenodd" clip-rule="evenodd" d="M6.70223 4.54801C6.54349 4.54801 6.38391 4.48724 6.26257 4.36571C6.01906 4.12265 6.01739 3.72808 6.26091 3.48335L8.6836 1.04605C8.91714 0.810476 9.3327 0.810476 9.56624 1.04605L11.9898 3.48335C12.2324 3.72808 12.2316 4.12265 11.9881 4.36571C11.7437 4.60878 11.3498 4.60877 11.1071 4.36405L9.12492 2.37125L7.14355 4.36405C7.02221 4.48724 6.8618 4.54801 6.70223 4.54801Z" fill="#8391A1"/>
</svg>
