<svg width="26" height="24" viewBox="0 0 26 24" fill="none" xmlns="http://www.w3.org/2000/svg">
<path d="M22.3751 4.50003H18.0001V3.25003C17.9983 1.87003 16.8801 0.751785 15.5001 0.750031H10.5001C9.12009 0.751785 8.00185 1.87003 8.00009 3.25003V4.50003H3.62509C1.89986 4.50163 0.501694 5.8998 0.500092 7.62503V20.125C0.501694 21.8503 1.89986 23.2484 3.62509 23.25H22.3751C24.1003 23.2484 25.4985 21.8503 25.5001 20.125V7.62503C25.4985 5.8998 24.1003 4.50163 22.3751 4.50003ZM9.25009 3.25003C9.25055 2.55988 9.80994 2.00049 10.5001 2.00003H15.5001C16.1902 2.00049 16.7496 2.55988 16.7501 3.25003V4.50003H9.25009V3.25003ZM24.2501 20.125C24.2489 21.1601 23.4102 21.9989 22.3751 22H3.62509C2.59001 21.9989 1.75124 21.1601 1.75009 20.125V12.0342L9.05234 14.4683C9.1162 14.4892 9.18295 14.5 9.25009 14.5H16.7501C16.8173 14.5 16.8841 14.4892 16.9479 14.4683L24.2501 12.0342V20.125ZM24.2501 10.7574C24.1844 10.7574 24.1181 10.7599 24.0524 10.7818L16.6488 13.25H9.35141L1.94785 10.7818C1.88216 10.7599 1.81578 10.7574 1.75009 10.7574V7.62503C1.75124 6.58995 2.59001 5.75117 3.62509 5.75003H22.3751C23.4102 5.75117 24.2489 6.58995 24.2501 7.62503V10.7574Z" fill="#FF9D9B" stroke="#FF9D9B" stroke-width="0.666667"/>
</svg>
